<?xml version="1.0" encoding="iso-8859-1"?>
<!-- Generator: Adobe Illustrator 19.0.0, SVG Export Plug-In . SVG Version: 6.00 Build 0)  -->
<svg version="1.1" id="Layer_1" xmlns="http://www.w3.org/2000/svg" xmlns:xlink="http://www.w3.org/1999/xlink" x="0px" y="0px"
	 viewBox="0 0 512 512" style="enable-background:new 0 0 512 512;" xml:space="preserve">
<g>
	<g>
		<path d="M483.726,149.139h-83.5c-4.765,0-8.627,3.863-8.627,8.627s3.863,8.627,8.627,8.627h83.5c6.076,0,11.02,4.943,11.02,11.02
			c0,6.077-4.943,11.02-11.02,11.02H28.274c-6.076,0-11.02-4.943-11.02-11.02c0-6.076,4.943-11.02,11.02-11.02h335.041
			c4.765,0,8.627-3.863,8.627-8.627s-3.863-8.627-8.627-8.627H51.637V97.039c0-11,8.949-19.951,19.951-19.951
			c11,0,19.95,8.949,19.95,19.951v1.786c0,4.764,3.863,8.627,8.627,8.627s8.627-3.863,8.627-8.627v-1.786
			c0-20.514-16.69-37.205-37.205-37.205c-20.514,0-37.204,16.69-37.204,37.205v52.099h-6.108C12.684,149.139,0,161.822,0,177.413
			c0,12.251,7.833,22.703,18.753,26.621v43.037c0,4.765,3.863,8.627,8.627,8.627s8.627-3.863,8.627-8.627v-41.383h439.985v9.503
			c0,18.385-2.98,36.444-8.858,53.675c-1.538,4.509,0.87,9.412,5.38,10.951c0.923,0.315,1.862,0.465,2.786,0.465
			c3.589,0,6.941-2.257,8.165-5.845c6.492-19.028,9.783-38.961,9.783-59.245v-11.156c10.919-3.92,18.752-14.373,18.752-26.624
			C512,161.823,499.317,149.139,483.726,149.139z"/>
	</g>
</g>
<g>
	<g>
		<path d="M469.926,440.456l-34.862-91.285c13.018-12.172,24.271-26.213,33.296-41.681c2.401-4.116,1.011-9.398-3.104-11.8
			c-4.117-2.399-9.398-1.011-11.8,3.104c-14.389,24.66-35.01,45.334-59.635,59.788c-25.357,14.883-54.393,22.749-83.97,22.749
			h-196.55c-42.62,0-77.293-34.673-77.293-77.293v-23.031c0-4.765-3.863-8.627-8.627-8.627s-8.627,3.863-8.627,8.627v23.03
			c0,28.921,13.066,54.836,33.59,72.193L27.806,440.46c-1.012,2.651-0.657,5.632,0.954,7.97c1.61,2.339,4.268,3.735,7.107,3.735
			h30.363c1.831,0,3.617-0.583,5.095-1.664l70.954-51.917h167.575c13.402,0,26.698-1.487,39.662-4.352l76.893,56.264
			c1.478,1.081,3.262,1.664,5.095,1.664h30.364c2.839,0,5.496-1.396,7.105-3.735C470.581,446.087,470.938,443.107,469.926,440.456z
			 M63.41,434.912H48.395l18.538-48.526c13.647,7.714,29.379,12.151,46.131,12.192L63.41,434.912z M434.319,434.908l-63.755-46.651
			c11.087-3.882,21.808-8.819,31.991-14.795c6.444-3.782,12.629-7.962,18.543-12.483l28.236,73.93H434.319z"/>
	</g>
</g>
<g>
</g>
<g>
</g>
<g>
</g>
<g>
</g>
<g>
</g>
<g>
</g>
<g>
</g>
<g>
</g>
<g>
</g>
<g>
</g>
<g>
</g>
<g>
</g>
<g>
</g>
<g>
</g>
<g>
</g>
</svg>
