<?xml version="1.0" encoding="iso-8859-1"?>
<!-- Generator: Adobe Illustrator 19.0.0, SVG Export Plug-In . SVG Version: 6.00 Build 0)  -->
<svg version="1.1" id="Layer_1" xmlns="http://www.w3.org/2000/svg" xmlns:xlink="http://www.w3.org/1999/xlink" x="0px" y="0px"
	 viewBox="0 0 32.03 32.03" style="enable-background:new 0 0 32.03 32.03;" xml:space="preserve">
<g>
	<g>
		<path d="M31.006,24.515h-30c-0.553,0-1,0.448-1,1s0.447,1,1,1h30c0.553,0,1-0.448,1-1S31.559,24.515,31.006,24.515z"/>
	</g>
</g>
<g>
	<g>
		<path d="M29.006,4.515c-0.553,0-1,0.448-1,1v9c0,0.552,0.447,1,1,1s1-0.448,1-1v-9C30.006,4.963,29.559,4.515,29.006,4.515z"/>
	</g>
</g>
<g>
	<g>
		<path d="M3.006,4.515c-0.553,0-1,0.448-1,1v9c0,0.552,0.447,1,1,1s1-0.448,1-1v-9C4.006,4.963,3.559,4.515,3.006,4.515z"/>
	</g>
</g>
<g>
	<g>
		<path d="M3.249,13.065c-0.529-0.17-1.09,0.119-1.26,0.643L0.048,19.7c-0.169,0.525,0.118,1.089,0.643,1.259
			C0.795,20.992,0.899,21.008,1,21.008c0.422,0,0.815-0.27,0.951-0.693l1.941-5.991C4.061,13.799,3.774,13.235,3.249,13.065z"/>
	</g>
</g>
<g>
	<g>
		<path d="M31.98,19.696l-1.963-5.992c-0.171-0.524-0.732-0.813-1.262-0.639c-0.525,0.172-0.811,0.737-0.639,1.262l1.963,5.992
			c0.138,0.421,0.529,0.689,0.95,0.689c0.103,0,0.208-0.016,0.312-0.05C31.866,20.786,32.152,20.221,31.98,19.696z"/>
	</g>
</g>
<g>
	<g>
		<path d="M29.006,13.515h-3c-0.553,0-1,0.448-1,1s0.447,1,1,1h3c0.553,0,1-0.448,1-1S29.559,13.515,29.006,13.515z"/>
	</g>
</g>
<g>
	<g>
		<path d="M6.006,13.515h-3c-0.553,0-1,0.448-1,1s0.447,1,1,1h3c0.553,0,1-0.448,1-1S6.559,13.515,6.006,13.515z"/>
	</g>
</g>
<g>
	<g>
		<path d="M15.377,8.511L6.893,8.515L6.564,8.511c-1.446,0-1.558,1.121-1.558,1.465v4.039c0,1.022,0.672,2.5,1.887,2.5h8.144
			c1.293,0,1.969-1.627,1.969-2.5V9.976C17.006,9.632,16.889,8.511,15.377,8.511z M15.007,14.015c-0.001,0.12-0.093,0.362-0.182,0.5
			H7.144c-0.07-0.14-0.138-0.362-0.138-0.5v-3.5h8.001V14.015z"/>
	</g>
</g>
<g>
	<g>
		<path d="M26.597,8.917c-0.428-0.421-0.964-0.41-1.364-0.404l-8.291,0.002c-1.348,0-1.952,0.865-1.952,1.722
			c0,0.55,0.444,0.991,0.994,0.994c0.002,0,0.004,0,0.006,0c0.451,0,0.833-0.303,0.958-0.716h8.058v3.5
			c0,0.123-0.081,0.359-0.162,0.5h-7.812c-0.021-0.032-0.042-0.079-0.042-0.11c0-0.552-0.447-1-1-1s-1,0.448-1,1
			c0,1.124,0.912,2.11,1.951,2.11h8.131c1.288,0,1.934-1.603,1.934-2.5V9.976C27.006,9.433,26.783,9.1,26.597,8.917z"/>
	</g>
</g>
<g>
	<g>
		<path d="M1.006,19.515c-0.553,0-1,0.448-1,1v6c0,0.552,0.447,1,1,1s1-0.448,1-1v-6C2.006,19.963,1.559,19.515,1.006,19.515z"/>
	</g>
</g>
<g>
	<g>
		<path d="M31.006,19.515c-0.553,0-1,0.448-1,1v6c0,0.552,0.447,1,1,1s1-0.448,1-1v-6C32.006,19.963,31.559,19.515,31.006,19.515z"
			/>
	</g>
</g>
<g>
	<g>
		<path d="M30.006,4.515h-28c-0.553,0-1,0.448-1,1s0.447,1,1,1h28c0.553,0,1-0.448,1-1S30.559,4.515,30.006,4.515z"/>
	</g>
</g>
<g>
	<g>
		<path d="M31.006,19.515h-30c-0.553,0-1,0.448-1,1s0.447,1,1,1h30c0.553,0,1-0.448,1-1S31.559,19.515,31.006,19.515z"/>
	</g>
</g>
<g>
</g>
<g>
</g>
<g>
</g>
<g>
</g>
<g>
</g>
<g>
</g>
<g>
</g>
<g>
</g>
<g>
</g>
<g>
</g>
<g>
</g>
<g>
</g>
<g>
</g>
<g>
</g>
<g>
</g>
</svg>
